<?xml version="1.0" encoding="utf-8"?>
<svg id="master-artboard" viewBox="0 0 1400 980" version="1.1" xmlns="http://www.w3.org/2000/svg" x="0px" y="0px" style="enable-background:new 0 0 1400 980;" width="1400px" height="980px">

<g transform="matrix(1, 0, 0, 1, -2.842170943040401e-14, 0)">
		<g>
			<g>
				<g>
					<path class="st0" d="M102.9,388.3c-1.4-4.3-33.7-105.3-37.6-141.5C62.5,220.5,77.8,194.2,90,173c5.3-9.1,10.2-17.6,12.9-24.8&#10;&#9;&#9;&#9;&#9;&#9;&#9;l7.2,2.8c-2.9,7.7-8.1,16.5-13.5,25.9C84.4,198.1,70.5,222.2,73,246c3.8,35.3,36.9,138.9,37.3,139.9L102.9,388.3z" style="fill: rgb(189, 215, 179);"/>
				</g>
				<g>
					<path class="st0" d="M179.9,388.5l-7.2-2.8l30.8-78.3c1-6.8,13.9-92,11.5-118.7l7.7-0.7c2.6,28.5-11.1,117.2-11.6,121l-0.2,0.8&#10;&#9;&#9;&#9;&#9;&#9;&#9;L179.9,388.5z" style="fill: rgb(189, 215, 179);"/>
				</g>
				<g>
					<path class="st0" d="M143.7,387.2c-0.1-4.1-2.9-100,0-134.7c0.7-8.8,2.1-19.2,3.6-30.1c4.3-32.1,9.6-72,2-100.2l7.5-2&#10;&#9;&#9;&#9;&#9;&#9;&#9;c7.9,29.8,2.5,70.5-1.8,103.2c-1.4,10.8-2.8,21.1-3.5,29.7c-2.9,34.2,0,132.8,0,133.8L143.7,387.2z" style="fill: rgb(189, 215, 179);"/>
				</g>
				<g>
					<path class="st1" d="M106.6,156.1c0,0,44.9-38.7-18.9-98.1C87.7,58,47.2,135.4,106.6,156.1z" style="fill: rgb(175, 204, 163);"/>
				</g>
				<g>
					<path class="st1" d="M144.2,302.5c0,0,20.7-48.7-54.6-67.2C89.5,235.3,87.9,311.8,144.2,302.5z" style="fill: rgb(175, 204, 163);"/>
				</g>
				<g>
					<path class="st1" d="M218.3,203.4c0,0,52.9,0.6,41.3-76.1C259.6,127.3,188.2,154.9,218.3,203.4z" style="fill: rgb(175, 204, 163);"/>
				</g>
				<g>
					<path class="st1" d="M155.7,133.2c0,0,48.7-23.5,29.7-101.6C185.4,31.6,122.8,94.2,155.7,133.2z" style="fill: rgb(175, 204, 163);"/>
				</g>
				<g>
					<path class="st1" d="M211.9,264c0,0,45.1,43.7,110.6-21.8C322.5,242.1,233.7,204,211.9,264z" style="fill: rgb(175, 204, 163);"/>
				</g>
				<g>
					<path class="st1" d="M68.2,235.3c0,0,0.3-43.2-59-22.1C9.3,213.1,30.8,267.1,68.2,235.3z" style="fill: rgb(175, 204, 163);"/>
				</g>
				<g>
					<path class="st1" d="M146.9,229.7c0,0,35.8,24.2,51.1-36.8C198,192.9,141.1,180.9,146.9,229.7z" style="fill: rgb(175, 204, 163);"/>
				</g>
				<g>
					<path class="st1" d="M189.8,352.5c0,0,28.7,32.3,58.6-23C248.4,329.5,196.3,303.8,189.8,352.5z" style="fill: rgb(175, 204, 163);"/>
				</g>
			</g>
			<g>
				<path class="st1" d="M92.5,345.8c0,0,3.5-43-57.2-26.4C35.3,319.4,52.8,374.8,92.5,345.8z" style="fill: rgb(175, 204, 163);"/>
				<g>
					<g>
						<path class="st2" d="M102.2,148.3c0-0.5-3-49.2-13.4-78.8l1.5-0.5c10.5,29.8,13.5,78.7,13.5,79.2L102.2,148.3z" style="fill: rgb(144, 178, 128);"/>
					</g>
					<g>
						<path class="st2" d="M159.1,127.6l-1.5-0.5c0.2-0.6,21.8-59.9,24.9-85.6l1.6,0.2C181,67.5,159.4,127,159.1,127.6z" style="fill: rgb(144, 178, 128);"/>
					</g>
					<g>
						<path class="st2" d="M152.4,226.3l-0.7-1.4c0.3-0.1,27.4-12.5,37.4-25.7l1.3,1C180.1,213.6,153.5,225.8,152.4,226.3z" style="fill: rgb(144, 178, 128);"/>
					</g>
					<g>
						<path class="st2" d="M219.7,197.1l-1.1-1.1c0.3-0.3,28.2-29.7,36-63l1.5,0.4C248.2,167,220,196.8,219.7,197.1z" style="fill: rgb(144, 178, 128);"/>
					</g>
					<g>
						<path class="st2" d="M219.1,261.4l-0.1-1.6c0.5,0,50.1-2.2,93.7-15.2l0.5,1.5C269.4,259.2,219.6,261.4,219.1,261.4z" style="fill: rgb(144, 178, 128);"/>
					</g>
					<g>
						<path class="st2" d="M195.9,348.8l0-1.6c0.2,0,17-0.7,44.9-14.6l0.7,1.4C213.1,348.1,196.6,348.8,195.9,348.8z" style="fill: rgb(144, 178, 128);"/>
					</g>
					<g>
						<path class="st2" d="M141.8,295.9c-1.6-1.6-39.6-40.2-46.2-50.2l1.3-0.9c6.6,9.8,45.7,49.5,46.1,49.9L141.8,295.9z" style="fill: rgb(144, 178, 128);"/>
					</g>
					<g>
						<path class="st2" d="M63.6,235.2c-0.3-0.1-34.1-11.8-46.7-17.8l0.7-1.4c12.5,5.9,46.2,17.6,46.5,17.7L63.6,235.2z" style="fill: rgb(144, 178, 128);"/>
					</g>
					<g>
						<path class="st2" d="M87.4,343c-0.3-0.1-30.4-7.5-45.3-19.7l1-1.2c14.7,12,44.4,19.3,44.7,19.4L87.4,343z" style="fill: rgb(144, 178, 128);"/>
					</g>
				</g>
			</g>
		</g>
		<g>
			<path class="st3" d="M230.8,399H71.1c-8.7,0-15.3,6.2-14.7,13.9l13.5,165.9c0.6,7.6,8.2,14.6,16.9,15.4c0,0,10.4,4.1,62.7,4.1&#10;&#9;&#9;&#9;&#9;c48,0,65.5-4.1,65.5-4.1c8.7-0.8,16.2-7.7,16.9-15.3l13.5-165.9C246.1,405.2,239.5,399,230.8,399z" style="fill: rgb(212, 170, 167);"/>
			<path class="st3" d="M243.4,380h-185c-8.7,0-16.4,5.8-16.4,12.9v16.8c0,7.1,7.7,13.3,16.4,13.3h185c8.7,0,15.6-6.1,15.6-13.3&#10;&#9;&#9;&#9;&#9;v-16.8C259,385.8,252.1,380,243.4,380z" style="fill: rgb(212, 170, 167);"/>
			<path d="M 58 423 H 243 V 429 H 58 V 423 Z" class="st4" style="opacity: 0.07;"/>
		</g>
	</g><g transform="matrix(1, 0, 0, 1, -5.684341886080802e-14, 0)">
			<g>
				<path class="st5" d="M581.6,334.4c-3.4-0.9-3.3-12,0.2-24.6l4.8-17.5c3.5-12.6,9.1-22.1,12.4-21.2c3.4,0.9,3.3,12-0.2,24.6&#10;&#9;&#9;&#9;&#9;&#9;l-4.8,17.5C590.5,325.8,584.9,335.4,581.6,334.4z" style="fill: rgb(193, 211, 174);"/>
			</g>
			<g>
				<path class="st5" d="M570.4,309.7c-3.4-0.9-3.3-12,0.2-24.6l4.8-17.5c3.5-12.6,9.1-22.1,12.4-21.2c3.4,0.9,3.3,12-0.2,24.6&#10;&#9;&#9;&#9;&#9;&#9;l-4.8,17.5C579.4,301,573.8,310.6,570.4,309.7z" style="fill: rgb(193, 211, 174);"/>
			</g>
			<g>
				<path class="st5" d="M559.2,281.2c-3.4-0.9-3.3-12,0.2-24.6l4.8-17.5c3.5-12.6,9.1-22.1,12.4-21.2c3.4,0.9,3.3,12-0.2,24.6&#10;&#9;&#9;&#9;&#9;&#9;l-4.8,17.5C568.2,272.6,562.6,282.1,559.2,281.2z" style="fill: rgb(193, 211, 174);"/>
			</g>
			<g>
				<path class="st5" d="M548.1,255.4c-3.4-0.9-3.3-12,0.2-24.6l4.8-17.5c3.5-12.6,9.1-22.1,12.4-21.2c3.4,0.9,3.3,12-0.2,24.6&#10;&#9;&#9;&#9;&#9;&#9;l-4.8,17.5C557,246.7,551.4,256.3,548.1,255.4z" style="fill: rgb(193, 211, 174);"/>
			</g>
			<g>
				<path class="st5" d="M536.9,225.8c-3.4-0.9-3.3-12,0.2-24.6l4.8-17.5c3.5-12.6,9.1-22.1,12.4-21.2c3.4,0.9,3.3,12-0.2,24.6&#10;&#9;&#9;&#9;&#9;&#9;l-4.8,17.5C545.8,217.2,540.2,226.8,536.9,225.8z" style="fill: rgb(193, 211, 174);"/>
			</g>
			<g>
				<path class="st5" d="M525.1,193.2c-3.3-1.2-2.2-12.2,2.5-24.4l6.4-17c4.6-12.2,11-21.2,14.3-20c3.3,1.2,2.2,12.2-2.5,24.4&#10;&#9;&#9;&#9;&#9;&#9;l-6.4,17C534.8,185.5,528.3,194.5,525.1,193.2z" style="fill: rgb(193, 211, 174);"/>
			</g>
			<g>
				<path class="st5" d="M518.9,155.1c-2.7-1.5-0.2-11,5.4-21.2l7.9-14.1c5.7-10.1,12.5-17.2,15.2-15.7c2.7,1.5,0.2,11-5.4,21.2&#10;&#9;&#9;&#9;&#9;&#9;l-7.9,14.1C528.4,149.5,521.6,156.6,518.9,155.1z" style="fill: rgb(193, 211, 174);"/>
			</g>
			<g>
				<path class="st5" d="M520.4,119.6c-2.3-1.9,1-9.9,7.2-17.9l8.7-11.1c6.3-8,13.2-13,15.5-11.1c2.3,1.9-1,9.9-7.2,17.9l-8.7,11.1&#10;&#9;&#9;&#9;&#9;&#9;C529.7,116.4,522.7,121.4,520.4,119.6z" style="fill: rgb(193, 211, 174);"/>
			</g>
			<g>
				<path class="st5" d="M526.8,88.5c-2.1-2,1.8-9.8,8.6-17.2l9.5-10.4c6.9-7.5,14.2-11.9,16.4-9.9c2.1,2-1.8,9.8-8.6,17.2&#10;&#9;&#9;&#9;&#9;&#9;l-9.5,10.4C536.3,86.1,528.9,90.5,526.8,88.5z" style="fill: rgb(193, 211, 174);"/>
			</g>
			<g>
				<path class="st5" d="M638.3,131.8c-2.1-2,1.7-9.8,8.6-17.2l9.5-10.4c6.9-7.5,14.2-11.9,16.4-9.9c2.1,2-1.7,9.8-8.6,17.2&#10;&#9;&#9;&#9;&#9;&#9;l-9.5,10.4C647.8,129.4,640.4,133.8,638.3,131.8z" style="fill: rgb(193, 211, 174);"/>
			</g>
			<g>
				<path class="st5" d="M632.2,151.2c-1.5-2.5,4.3-9,13-14.3l12-7.4c8.6-5.3,16.9-7.6,18.4-5.1c1.5,2.5-4.3,9-13,14.3l-12,7.4&#10;&#9;&#9;&#9;&#9;&#9;C642,151.4,633.7,153.7,632.2,151.2z" style="fill: rgb(193, 211, 174);"/>
			</g>
			<g>
				<path class="st5" d="M628,167.1c-0.8-2.8,6.4-7.6,16-10.7l13.4-4.2c9.7-3.1,18.3-3.2,19.1-0.4c0.8,2.8-6.4,7.6-16,10.7&#10;&#9;&#9;&#9;&#9;&#9;l-13.4,4.2C637.5,169.7,628.9,169.9,628,167.1z" style="fill: rgb(193, 211, 174);"/>
			</g>
			<g>
				<path class="st5" d="M624.9,185.8c-0.8-2.8,6.4-7.6,16-10.7l13.4-4.2c9.7-3.1,18.3-3.2,19.1-0.4c0.8,2.8-6.4,7.6-16.1,10.7&#10;&#9;&#9;&#9;&#9;&#9;l-13.4,4.2C634.3,188.4,625.7,188.6,624.9,185.8z" style="fill: rgb(193, 211, 174);"/>
			</g>
			<g>
				<path class="st5" d="M622.2,204.5c-0.8-2.8,6.4-7.6,16-10.7l13.4-4.2c9.7-3.1,18.3-3.2,19.1-0.4c0.8,2.8-6.4,7.6-16,10.7&#10;&#9;&#9;&#9;&#9;&#9;l-13.4,4.2C631.6,207.1,623,207.3,622.2,204.5z" style="fill: rgb(193, 211, 174);"/>
			</g>
			<g>
				<path class="st5" d="M525,85c2.9-0.5,4-9.1,2.4-19.1L525.1,52c-1.6-10-5.3-17.8-8.2-17.3c-2.9,0.5-4,9.1-2.4,19.1l2.2,13.9&#10;&#9;&#9;&#9;&#9;&#9;C518.4,77.8,522.1,85.5,525,85z" style="fill: rgb(193, 211, 174);"/>
			</g>
			<g>
				<path class="st5" d="M523.1,108.1c2.5-1.5,0.6-9.9-4.3-18.8L511.9,77c-4.9-8.9-11-14.9-13.6-13.4c-2.5,1.5-0.6,9.9,4.3,18.8&#10;&#9;&#9;&#9;&#9;&#9;l6.8,12.3C514.4,103.5,520.5,109.5,523.1,108.1z" style="fill: rgb(193, 211, 174);"/>
			</g>
			<g>
				<path class="st5" d="M522.1,129.4c2.1-2.1-1.9-9.8-8.8-17.2l-9.7-10.3c-6.9-7.4-14.4-11.7-16.5-9.7c-2.1,2.1,1.8,9.8,8.8,17.2&#10;&#9;&#9;&#9;&#9;&#9;l9.7,10.3C512.6,127.1,520,131.5,522.1,129.4z" style="fill: rgb(193, 211, 174);"/>
			</g>
			<g>
				<path class="st5" d="M522,148.7c1.7-2.4-3.5-9.3-11.6-15.4l-11.3-8.5c-8.1-6.1-16.1-9.1-17.9-6.8c-1.7,2.4,3.5,9.3,11.6,15.4&#10;&#9;&#9;&#9;&#9;&#9;l11.3,8.5C512.2,148,520.3,151.1,522,148.7z" style="fill: rgb(193, 211, 174);"/>
			</g>
			<g>
				<path class="st5" d="M519.7,163.8c1.1-2.7-5.6-8.2-14.9-12.2l-12.9-5.6c-9.3-4-17.8-5-19-2.3c-1.1,2.7,5.6,8.2,14.9,12.2&#10;&#9;&#9;&#9;&#9;&#9;l12.9,5.6C510.1,165.5,518.6,166.5,519.7,163.8z" style="fill: rgb(193, 211, 174);"/>
			</g>
			<g>
				<path class="st5" d="M522.1,178.1c0.6-2.9-7.1-7-17-9.1l-13.8-3c-9.9-2.1-18.5-1.5-19.1,1.4c-0.6,2.9,7.1,7,17,9.1l13.8,3&#10;&#9;&#9;&#9;&#9;&#9;C513,181.6,521.5,181,522.1,178.1z" style="fill: rgb(193, 211, 174);"/>
			</g>
			<g>
				<path class="st5" d="M528.6,194.7c0.3-2.9-7.8-6.2-17.8-7.3l-14-1.5c-10.1-1.1-18.5,0.4-18.8,3.3c-0.3,2.9,7.8,6.2,17.8,7.3&#10;&#9;&#9;&#9;&#9;&#9;l14,1.5C519.8,199.1,528.3,197.6,528.6,194.7z" style="fill: rgb(193, 211, 174);"/>
			</g>
			<g>
				<path class="st5" d="M531.6,211.5c0.3-3.5-8.5-7.3-19.6-8.5l-15.4-1.7c-11.1-1.2-20.5,0.7-20.8,4.1c-0.3,3.5,8.5,7.3,19.6,8.5&#10;&#9;&#9;&#9;&#9;&#9;l15.4,1.7C521.9,216.8,531.3,214.9,531.6,211.5z" style="fill: rgb(193, 211, 174);"/>
			</g>
			<g>
				<path class="st5" d="M538.6,231.1c0.3-3.5-8.5-7.3-19.6-8.5l-15.4-1.7c-11.1-1.2-20.5,0.7-20.8,4.1c-0.3,3.5,8.5,7.3,19.6,8.5&#10;&#9;&#9;&#9;&#9;&#9;l15.4,1.7C528.9,236.4,538.3,234.6,538.6,231.1z" style="fill: rgb(193, 211, 174);"/>
			</g>
			<g>
				<path class="st5" d="M545.9,247.7c-0.1-3.5-9.3-6.2-20.5-6.1l-15.5,0.2c-11.2,0.1-20.3,3.1-20.2,6.6c0.1,3.5,9.3,6.2,20.5,6.1&#10;&#9;&#9;&#9;&#9;&#9;l15.5-0.2C536.9,254.1,546,251.2,545.9,247.7z" style="fill: rgb(193, 211, 174);"/>
			</g>
			<g>
				<path class="st5" d="M552.3,266.1c-0.1-3.5-9.3-6.2-20.5-6.1l-15.5,0.2c-11.2,0.1-20.3,3.1-20.2,6.6c0.1,3.5,9.3,6.2,20.5,6.1&#10;&#9;&#9;&#9;&#9;&#9;l15.5-0.2C543.3,272.6,552.4,269.6,552.3,266.1z" style="fill: rgb(193, 211, 174);"/>
			</g>
			<g>
				<path class="st5" d="M561.3,284.2c-0.1-3.5-9.3-6.2-20.5-6.1l-15.5,0.2c-11.2,0.1-20.3,3.1-20.2,6.6c0.1,3.5,9.3,6.2,20.5,6.1&#10;&#9;&#9;&#9;&#9;&#9;l15.5-0.2C552.3,290.6,561.4,287.7,561.3,284.2z" style="fill: rgb(193, 211, 174);"/>
			</g>
			<g>
				<path class="st5" d="M570.1,302.5c-0.1-3.5-9.3-6.2-20.5-6.1l-15.5,0.2c-11.2,0.1-20.3,3.1-20.2,6.6c0.1,3.5,9.3,6.2,20.5,6.1&#10;&#9;&#9;&#9;&#9;&#9;l15.5-0.2C561.1,309,570.1,306,570.1,302.5z" style="fill: rgb(193, 211, 174);"/>
			</g>
			<g>
				<path class="st5" d="M576.6,323.1c-0.1-3.5-9.3-6.2-20.5-6.1l-15.5,0.2c-11.2,0.1-20.3,3.1-20.2,6.6c0.1,3.5,9.3,6.2,20.5,6.1&#10;&#9;&#9;&#9;&#9;&#9;l15.5-0.2C567.6,329.5,576.6,326.6,576.6,323.1z" style="fill: rgb(193, 211, 174);"/>
			</g>
			<g>
				<path class="st5" d="M586.5,342.2c-0.1-3.5-9.3-6.2-20.5-6.1l-15.5,0.2c-11.2,0.1-20.3,3.1-20.2,6.6c0.1,3.5,9.3,6.2,20.5,6.1&#10;&#9;&#9;&#9;&#9;&#9;l15.5-0.2C577.5,348.6,586.5,345.7,586.5,342.2z" style="fill: rgb(193, 211, 174);"/>
			</g>
			<g>
				<path class="st5" d="M619.5,222.4c-0.9-3.4,7.1-8.7,17.8-11.8l14.9-4.4c10.7-3.1,20.3-3,21.2,0.4c0.9,3.4-7.1,8.7-17.8,11.8&#10;&#9;&#9;&#9;&#9;&#9;l-14.9,4.4C630,225.9,620.4,225.7,619.5,222.4z" style="fill: rgb(193, 211, 174);"/>
			</g>
			<g>
				<path class="st5" d="M616.9,240c-0.5-3.4,8-7.8,19.1-9.6l15.3-2.6c11-1.9,20.5-0.6,21,2.9c0.5,3.4-8,7.8-19.1,9.7l-15.3,2.6&#10;&#9;&#9;&#9;&#9;&#9;C626.9,244.7,617.4,243.5,616.9,240z" style="fill: rgb(193, 211, 174);"/>
			</g>
			<g>
				<path class="st5" d="M613.9,259.3c-0.5-3.4,8-7.8,19.1-9.6l15.3-2.6c11-1.9,20.5-0.6,21,2.9c0.5,3.4-8,7.8-19.1,9.7l-15.3,2.6&#10;&#9;&#9;&#9;&#9;&#9;C623.9,264,614.4,262.7,613.9,259.3z" style="fill: rgb(193, 211, 174);"/>
			</g>
			<g>
				<path class="st5" d="M608.2,278.7c-0.5-3.4,8-7.8,19.1-9.6l15.3-2.6c11-1.9,20.5-0.6,21,2.9c0.5,3.4-8,7.8-19.1,9.7l-15.3,2.6&#10;&#9;&#9;&#9;&#9;&#9;C618.2,283.4,608.7,282.1,608.2,278.7z" style="fill: rgb(193, 211, 174);"/>
			</g>
			<g>
				<path class="st5" d="M606,298.2c-0.5-3.4,8-7.8,19.1-9.6l15.3-2.6c11-1.9,20.5-0.6,21,2.9c0.5,3.4-8,7.8-19.1,9.7l-15.3,2.6&#10;&#9;&#9;&#9;&#9;&#9;C616,303,606.5,301.7,606,298.2z" style="fill: rgb(193, 211, 174);"/>
			</g>
			<g>
				<path class="st5" d="M600.1,319.6c-0.5-3.4,8-7.8,19.1-9.6l15.3-2.6c11-1.9,20.5-0.6,21,2.9c0.5,3.4-8,7.8-19.1,9.7l-15.3,2.6&#10;&#9;&#9;&#9;&#9;&#9;C610.1,324.4,600.6,323.1,600.1,319.6z" style="fill: rgb(193, 211, 174);"/>
			</g>
			<g>
				<path class="st5" d="M593.7,340.2c-0.5-3.4,8-7.8,19.1-9.6l15.3-2.6c11-1.9,20.5-0.6,21,2.9c0.5,3.4-8,7.8-19.1,9.7l-15.3,2.6&#10;&#9;&#9;&#9;&#9;&#9;C603.7,344.9,594.3,343.6,593.7,340.2z" style="fill: rgb(193, 211, 174);"/>
			</g>
			<g>
				<path class="st5" d="M531.6,67.7c-2.5-1.5-0.6-9.9,4.4-18.8l6.9-12.3c5-8.8,11.1-14.9,13.6-13.4c2.5,1.5,0.6,9.9-4.4,18.8&#10;&#9;&#9;&#9;&#9;&#9;l-6.9,12.3C540.2,63.2,534.1,69.2,531.6,67.7z" style="fill: rgb(193, 211, 174);"/>
			</g>
			<g>
				<path class="st5" d="M621.8,217.7c2.3-2.6-2.7-10.9-11.1-18.2L599,189.1c-8.4-7.4-17.1-11.3-19.4-8.6&#10;&#9;&#9;&#9;&#9;&#9;c-2.3,2.6,2.7,10.9,11.1,18.2l11.7,10.3C610.8,216.4,619.5,220.3,621.8,217.7z" style="fill: rgb(193, 211, 174);"/>
			</g>
			<g>
				<path class="st5" d="M618.1,235.4c1.9-2.9-4-10.5-13.2-16.8l-12.8-8.8c-9.2-6.4-18.3-9.2-20.3-6.3c-1.9,2.9,4,10.5,13.2,16.8&#10;&#9;&#9;&#9;&#9;&#9;l12.8,8.8C607.1,235.5,616.2,238.3,618.1,235.4z" style="fill: rgb(193, 211, 174);"/>
			</g>
			<g>
				<path class="st5" d="M612.7,254.2c1.9-2.9-4-10.5-13.2-16.8l-12.8-8.8c-9.2-6.4-18.3-9.2-20.3-6.3c-1.9,2.9,4,10.5,13.2,16.8&#10;&#9;&#9;&#9;&#9;&#9;l12.8,8.8C601.6,254.2,610.8,257.1,612.7,254.2z" style="fill: rgb(193, 211, 174);"/>
			</g>
			<g>
				<path class="st5" d="M609.7,274.1c1.9-2.9-4-10.5-13.2-16.8l-12.8-8.8c-9.2-6.4-18.3-9.2-20.3-6.3c-1.9,2.9,4,10.5,13.2,16.8&#10;&#9;&#9;&#9;&#9;&#9;l12.8,8.8C598.6,274.2,607.7,277,609.7,274.1z" style="fill: rgb(193, 211, 174);"/>
			</g>
			<g>
				<path class="st5" d="M606.3,294.1c1.9-2.9-4-10.5-13.2-16.8l-12.8-8.8c-9.2-6.4-18.3-9.2-20.3-6.3c-1.9,2.9,4,10.5,13.2,16.8&#10;&#9;&#9;&#9;&#9;&#9;l12.8,8.8C595.2,294.2,604.3,297,606.3,294.1z" style="fill: rgb(193, 211, 174);"/>
			</g>
			<g>
				<path class="st5" d="M599.7,314.7c1.9-2.9-4-10.5-13.2-16.8l-12.8-8.8c-9.2-6.4-18.3-9.2-20.3-6.3c-1.9,2.9,4,10.5,13.2,16.8&#10;&#9;&#9;&#9;&#9;&#9;l12.8,8.8C588.6,314.7,597.7,317.6,599.7,314.7z" style="fill: rgb(193, 211, 174);"/>
			</g>
			<g>
				<path class="st5" d="M624.4,198c2.3-1.9-1.1-9.9-7.4-17.8l-8.8-11c-6.3-7.9-13.4-12.8-15.6-11c-2.3,1.9,1.1,9.9,7.4,17.8l8.8,11&#10;&#9;&#9;&#9;&#9;&#9;C615.1,194.9,622.1,199.9,624.4,198z" style="fill: rgb(193, 211, 174);"/>
			</g>
			<g>
				<path class="st5" d="M629.8,177.7c2.3-1.9-1.1-9.9-7.4-17.8l-8.8-11c-6.3-7.9-13.4-12.8-15.6-11c-2.3,1.9,1.1,9.9,7.4,17.8&#10;&#9;&#9;&#9;&#9;&#9;l8.8,11C620.5,174.7,627.5,179.6,629.8,177.7z" style="fill: rgb(193, 211, 174);"/>
			</g>
			<g>
				<path class="st5" d="M632.8,153.2c2.3-1.9-1.1-9.9-7.4-17.8l-8.8-11c-6.3-7.9-13.4-12.8-15.6-11c-2.3,1.9,1.1,9.9,7.4,17.8&#10;&#9;&#9;&#9;&#9;&#9;l8.8,11C623.5,150.2,630.5,155.1,632.8,153.2z" style="fill: rgb(193, 211, 174);"/>
			</g>
			<g>
				<path class="st5" d="M636.3,135.4c2.5-1.5,0.6-9.9-4.3-18.8l-6.8-12.3c-4.9-8.9-11-14.9-13.6-13.5c-2.5,1.5-0.6,9.9,4.3,18.8&#10;&#9;&#9;&#9;&#9;&#9;l6.8,12.3C627.6,130.8,633.7,136.8,636.3,135.4z" style="fill: rgb(193, 211, 174);"/>
			</g>
			<g>
				<path class="st5" d="M638.8,120.1c2.9-0.3,4.7-8.8,3.9-18.9l-1.1-14c-0.8-10.1-3.8-18.2-6.8-17.9c-2.9,0.3-4.7,8.8-3.9,18.9&#10;&#9;&#9;&#9;&#9;&#9;l1.1,14C632.8,112.4,635.9,120.4,638.8,120.1z" style="fill: rgb(193, 211, 174);"/>
			</g>
			<g>
				<path class="st5" d="M596.8,336c1.9-2.9-4-10.5-13.2-16.8l-12.8-8.8c-9.2-6.4-18.3-9.2-20.3-6.3c-1.9,2.9,4,10.5,13.2,16.8&#10;&#9;&#9;&#9;&#9;&#9;l12.8,8.8C585.7,336.1,594.8,338.9,596.8,336z" style="fill: rgb(193, 211, 174);"/>
				<g>
					<g>
						<path class="st6" d="M594.7,384.6l-9.5-0.5c0.4-8.2,1.3-31,0.1-38.1l9.4-1.6C596.3,353.9,594.8,383.3,594.7,384.6z" style="fill: rgb(171, 193, 151);"/>
					</g>
					<g>
						<path class="st6" d="M592,347.6l-4.1-4.8l2.1,2.4l-2.1-2.3c0.2-0.2,18.3-18.4,27.4-121.4l0.1-0.5&#10;&#9;&#9;&#9;&#9;&#9;&#9;&#9;c0.2-0.8,18.9-77.1,20.5-104.9l6.3,0.4c-1.6,27.9-19.2,100.3-20.6,105.8C612.1,329.1,592.8,346.9,592,347.6z" style="fill: rgb(171, 193, 151);"/>
					</g>
					<g>
						<path class="st6" d="M587.8,356.4c-0.5-1-46.9-102.5-72-184.7l-0.1-0.4l0-0.4c-0.1-3-3-73.4,16.2-108.4l5.6,3&#10;&#9;&#9;&#9;&#9;&#9;&#9;&#9;c-17.6,32.2-15.7,99-15.4,104.7c25,81.7,71.1,182.5,71.6,183.5L587.8,356.4z" style="fill: rgb(171, 193, 151);"/>
					</g>
				</g>
			</g>
		</g><path class="st7" d="M647.8,612.5c-0.5,4.3-4.4,7.5-8.8,7.5h-98.1c-4.3,0-8.3-3.2-8.8-7.5L507,385.3c-0.5-4.3,2.7-7.3,7-7.3h151.8&#10;&#9;&#9;&#9;c4.3,0,7.5,2.9,7,7.3L647.8,612.5z" style="fill: rgb(211, 185, 167);" transform="matrix(1, 0, 0, 1, -5.684341886080802e-14, 0)"/><g transform="matrix(1, 0, 0, 1, -5.684341886080802e-14, 0)">
			<path class="st8" d="M1218.5,754.8c0,0-19-183.1-69.1-271.4c-50.1-88.3-50.9-112.2-57.8-125.3" style="fill: rgb(211, 234, 174);"/>
			<path class="st8" d="M1249,754.8c0,0,65.6-189.6,141.6-218.7" style="fill: rgb(211, 234, 174);"/>
			<path class="st8" d="M1231.5,767.9c0,0-6.6-280.5-35.4-331" style="fill: rgb(211, 234, 174);"/>
			<path class="st8" d="M1239.8,775.8c0,0,3.5-282.9,34.5-319.4" style="fill: rgb(211, 234, 174);"/>
			<path class="st9" d="M1191.4,754.8c0,0-51.8-303.3-23-354.7" style="fill: rgb(206, 224, 169);"/>
			<path class="st9" d="M1203,767.9c0,0,13.1-321.8-11.5-346.6" style="fill: rgb(206, 224, 169);"/>
			<path class="st9" d="M1218.5,775.8c0,0,40.6-274.8,13-292" style="fill: rgb(206, 224, 169);"/>
			<path class="st9" d="M1249,775.8c0,0,78.3-238.3,44.9-276" style="fill: rgb(206, 224, 169);"/>
			<path class="st9" d="M1274.3,759.9c0,0,62.2-194.7,39.1-236.9" style="fill: rgb(206, 224, 169);"/>
			<path class="st9" d="M1229.8,796.2c0,0,28.4-332.8,19.2-389.4c-9.2-56.7,6.1-21.5-5.8-54.5" style="fill: rgb(206, 224, 169);"/>
			<path class="st8" d="M1265.4,763.5c0,0,19-183.1,69.1-271.4c50.1-88.3,50.9-112.3,57.8-125.3" style="fill: rgb(211, 234, 174);"/>
			<path class="st8" d="M1234.9,763.5c0,0-65.6-189.6-141.6-218.7" style="fill: rgb(211, 234, 174);"/>
			<path class="st8" d="M1252.5,776.6c0,0,6.6-280.5,35.4-331" style="fill: rgb(211, 234, 174);"/>
			<path class="st8" d="M1244.1,784.5c0,0-3.5-282.9-34.5-319.4" style="fill: rgb(211, 234, 174);"/>
			<path class="st9" d="M1292.5,763.5c0,0,51.8-303.3,23-354.7" style="fill: rgb(206, 224, 169);"/>
			<path class="st9" d="M1281,776.6c0,0-13.1-321.8,11.5-346.6" style="fill: rgb(206, 224, 169);"/>
			<path class="st9" d="M1265.4,784.5c0,0-40.6-274.8-13-292" style="fill: rgb(206, 224, 169);"/>
			<path class="st9" d="M1234.9,784.5c0,0-78.3-238.3-44.9-276" style="fill: rgb(206, 224, 169);"/>
			<path class="st9" d="M1209.6,768.6c0,0-62.2-194.7-39.1-236.9" style="fill: rgb(206, 224, 169);"/>
			<path class="st9" d="M1254.1,804.9c0,0-28.4-332.8-19.2-389.4c9.2-56.7-6-21.5,5.8-54.5" style="fill: rgb(206, 224, 169);"/>
		</g><path class="st10" d="M1293.3,933.9c-1.2,5.7-7.1,10.7-13.2,11.2c0,0-26.1,2.1-38.5,2.1c-12.9,0-40.6-2.1-40.6-2.1&#10;&#9;&#9;&#9;c-6.1-0.5-12-5.5-13.3-11.1l-20.4-93.9c-1.2-5.7-2.3-15-2.3-20.8V711.7c0-5.8,5.1-9.7,11.2-9.7h128.1c6.1,0,11.7,4,11.7,9.7v105.5&#10;&#9;&#9;&#9;c0,5.8-1.3,15.1-2.5,20.8L1293.3,933.9z" style="fill: rgb(200, 161, 160);" transform="matrix(1, 0, 0, 1, -5.684341886080802e-14, 0)"/><g transform="matrix(1, 0, 0, 1, -5.684341886080802e-14, 0)">
			<g>
				<path class="st11" d="M996.5,404.3c-1.4-2.4-30-59.3-24.6-94.3c2.3-14.8,10.7-32.6,19.6-51.4c12-25.3,24.4-51.4,21.5-70.3&#10;&#9;&#9;&#9;&#9;&#9;c-5.9-37.9-10.5-87.7,0.8-109.9l2.5,2.9c-11.1,21.8-1.7,75.8,3,106.1c3.2,20.8-9.6,47.8-22,73.9c-8.7,18.4-17,35.8-19.1,49.6&#10;&#9;&#9;&#9;&#9;&#9;c-5,32.8,26.7,89.6,27,90.2L996.5,404.3z" style="fill: rgb(188, 221, 183);"/>
			</g>
			<g>
				<path class="st12" d="M1048,611.9c0,6.1-5,11.1-11.1,11.1h-80.9c-6.1,0-11.1-5-11.1-11.1v-26.9c0-6.1,5-11.1,11.1-11.1h80.9&#10;&#9;&#9;&#9;&#9;&#9;c6.1,0,11.1,5,11.1,11.1V611.9z" style="fill: rgb(214, 197, 201);"/>
				<path class="st13" d="M1091.6,399h-94.9h-94.6c0,0-23.3,198.7,94.7,195.6C1114.8,597.7,1091.6,399,1091.6,399z" style="fill: rgb(227, 213, 215);"/>
			</g>
			<g>
				<path class="st14" d="M978.1,353.1c0,0-26.8-28.6-70.1-41.4C908.1,311.7,945.9,402,978.1,353.1z" style="fill: rgb(190, 216, 184);"/>
				<path class="st14" d="M988.5,373.2c0,0,38.1,7.8,40.2-16.9C1028.8,356.3,1001,357.9,988.5,373.2z" style="fill: rgb(190, 216, 184);"/>
				<path class="st14" d="M975.3,332.1c0,0,68.3,27,94.6-16.8C1069.9,315.3,1032.5,297.8,975.3,332.1z" style="fill: rgb(190, 216, 184);"/>
				<path class="st14" d="M978.1,299.7c0,0,2.2-33.4-87.5-64C890.7,235.6,892.7,297.2,978.1,299.7z" style="fill: rgb(190, 216, 184);"/>
				<path class="st14" d="M988.5,269.8c0,0,24.4-26.8,81.4-34.2c0,0,29.5,6.6,44.3,4.9C1128.9,238.8,1081.3,284.3,988.5,269.8z" style="fill: rgb(190, 216, 184);"/>
				<path class="st14" d="M1002.1,235.6c0,0-8.1-34.9-81.9-64.4c0,0,0.7,71.5,81.9,69.2" style="fill: rgb(190, 216, 184);"/>
				<path class="st14" d="M1010,166.5c0,0,76.8-24.5,103.1,11.2C1113.1,177.8,1028.1,203.9,1010,166.5z" style="fill: rgb(190, 216, 184);"/>
				<path class="st14" d="M1008.7,138.3c0,0-40-15-79,0C929.7,138.3,990.6,170.7,1008.7,138.3z" style="fill: rgb(190, 216, 184);"/>
				<path class="st14" d="M1008.7,95.7c0,0-57.3-27.7-59.2-49.9C947.6,23.7,1000.1,54.9,1008.7,95.7z" style="fill: rgb(190, 216, 184);"/>
				<path class="st14" d="M1010,89.2c0,0-13.5-44.4-7.9-67.6C1002.1,21.6,1034.4,45.4,1010,89.2z" style="fill: rgb(190, 216, 184);"/>
				<path class="st14" d="M1008.7,95.7c0,0,3.4-35.1,52.9-48.8C1061.6,46.9,1043.4,92.8,1008.7,95.7z" style="fill: rgb(190, 216, 184);"/>
			</g>
		</g><g transform="matrix(1, 0, 0, 1, -8.526512829121202e-14, 0)">
				<path class="st15" d="M1001.6,87.6c-0.4-0.3-36.2-31.2-48.2-42.7l1.1-1.1c12,11.5,47.8,42.4,48.2,42.7L1001.6,87.6z" style="fill: rgb(216, 232, 212);"/>
			</g><path class="st15" d="M1010.8,82.4l-1.6-0.1c0-0.4,2.8-37.5-4.6-52.9l1.4-0.7C1013.6,44.5,1010.9,80.8,1010.8,82.4z" style="fill: rgb(216, 232, 212);" transform="matrix(1, 0, 0, 1, -8.526512829121202e-14, 0)"/><path class="st15" d="M1013.9,89.8l-1-1.2c0.4-0.3,35.5-28.5,42.3-36.6l1.2,1C1049.5,61.2,1015.4,88.6,1013.9,89.8z" style="fill: rgb(216, 232, 212);" transform="matrix(1, 0, 0, 1, -8.526512829121202e-14, 0)"/><path class="st15" d="M1002.1,143c-0.4,0-41.7-1.5-62.2-3.6l0.2-1.6c20.5,2.1,61.7,3.6,62.1,3.6L1002.1,143z" style="fill: rgb(216, 232, 212);" transform="matrix(1, 0, 0, 1, -8.526512829121202e-14, 0)"/><path class="st15" d="M1104.5,175.8c-20.2-5.2-87.5-6.4-88.2-6.4l0-1.6c0.7,0,68.1,1.2,88.5,6.5L1104.5,175.8z" style="fill: rgb(216, 232, 212);" transform="matrix(1, 0, 0, 1, -8.526512829121202e-14, 0)"/><path class="st15" d="M998.4,268.4l-0.3-1.5c0.6-0.1,55.4-11.5,66.8-15.6c12.2-4.4,31.4-5.8,39.8-5.8l0,1.6&#10;&#9;&#9;&#9;&#9;&#9;c-8.3,0.1-27.3,1.4-39.3,5.8C1053.9,256.9,1000.6,267.9,998.4,268.4z" style="fill: rgb(216, 232, 212);" transform="matrix(1, 0, 0, 1, -8.526512829121202e-14, 0)"/><path class="st15" d="M997.8,236.3c-2.4-1.6-58.8-39.8-71.3-55l1.2-1c12.4,15,70.4,54.3,71,54.7L997.8,236.3z" style="fill: rgb(216, 232, 212);" transform="matrix(1, 0, 0, 1, -8.526512829121202e-14, 0)"/><path class="st15" d="M988.7,333.2l-0.3-1.6c0.6-0.1,64.8-11.9,72.9-14.5l0.5,1.5C1053.6,321.2,991.3,332.7,988.7,333.2z" style="fill: rgb(216, 232, 212);" transform="matrix(1, 0, 0, 1, -8.526512829121202e-14, 0)"/><path class="st15" d="M995.6,371.4l-0.3-1.6c7.1-1.3,26.2-5.4,29.1-9.2l1.3,1C1021.9,366.5,998.3,370.9,995.6,371.4z" style="fill: rgb(216, 232, 212);" transform="matrix(1, 0, 0, 1, -8.526512829121202e-14, 0)"/><path class="st15" d="M967.9,354.9c-7,0-24.3-4.1-53.1-36.5l1.2-1.1c37.2,41.8,54.7,35.7,54.9,35.6l0.6,1.5&#10;&#9;&#9;&#9;&#9;&#9;C971.3,354.5,970.1,354.9,967.9,354.9z" style="fill: rgb(216, 232, 212);" transform="matrix(1, 0, 0, 1, -8.526512829121202e-14, 0)"/><path class="st15" d="M974.9,295.4c-2.9-1.4-70.2-34.2-81.3-53.6l1.4-0.8c10.8,19,79.9,52.6,80.6,53L974.9,295.4z" style="fill: rgb(216, 232, 212);" transform="matrix(1, 0, 0, 1, -8.526512829121202e-14, 0)"/><g transform="matrix(1, 0, 0, 1, -5.684341886080802e-14, 0)">
			<path class="st16" d="M807.5,641.8l37-23.7c0,0-46.9-33.2,62.7-39.5c0,0-41.6,96.5-60.6,43.8l-39.1,26.4" style="fill: rgb(209, 229, 186);"/>
			<path class="st16" d="M804.7,661l-35.2-35c0,0-25.1,59.8-59-59.4c0,0,116.5,22.2,63.1,56l38.6,36.6" style="fill: rgb(209, 229, 186);"/>
			<path class="st16" d="M778,551.4l-29.1-18.3c0,0-7.9,44.3-48.9-31.3c0,0,82.3-2.6,51.2,28.4l31.7,19" style="fill: rgb(209, 229, 186);"/>
			<path class="st16" d="M772.3,503.8l28.7-19c0,0-37.1-25.5,48.7-31.7c0,0-31.5,76-47,35l-30.3,21.1" style="fill: rgb(209, 229, 186);"/>
			<path class="st16" d="M794,352.1l-14.9-25.8c0,0-24,30.7-24.7-43.7c0,0,63.9,31.3,27.6,42.4l16.6,27.3" style="fill: rgb(209, 229, 186);"/>
			<path class="st16" d="M801,385.2l-24.6-16.7c0,0-8.2,38.1-41.3-28.5c0,0,71.2,0.2,43.4,26.1l26.8,17.3" style="fill: rgb(209, 229, 186);"/>
			<path class="st16" d="M806,398.6l11.5-27.5c0,0,27.7,27.4,19-46.5c0,0-59.4,39.1-22,45.6l-13,29.2" style="fill: rgb(209, 229, 186);"/>
			<path class="st16" d="M795,447.7l-21.8-20.3c0,0,35.3-16.5-37.1-33.9c0,0,16.2,69.3,35.1,36.4l22.9,22.3" style="fill: rgb(209, 229, 186);"/>
			<path class="st16" d="M797.2,451.3l25.5-24.4c0,0,17.1,42.9,42.7-41.6c0,0-83.2,14.4-45.6,39.1l-28,25.6" style="fill: rgb(209, 229, 186);"/>
			<path class="st16" d="M807,591.9l23.2-37c0,0,33.5,46.3,38.6-62.8c0,0-95.4,42.4-42.8,60.7L800.2,592" style="fill: rgb(209, 229, 186);"/>
			<path class="st16" d="M776.5,496.3l-32.9-28.8c0,0,51-25.7-55.8-48.1c0,0,26.7,101,53.1,51.9l34.6,31.7" style="fill: rgb(209, 229, 186);"/>
			<g>
				<path class="st17" d="M809.8,691.6l-12.5-1.6c0.2-0.9,22-87.2-12.8-129.5c-28-34.1-13.4-66.8-0.5-95.7&#10;&#9;&#9;&#9;&#9;&#9;c4.7-10.4,9.1-20.3,11.1-29.4c7.3-33.6,4.5-70.4-7.2-93.9l3.9-1.9c12.4,25,18.7,62.3,11,97.5c-2.2,9.9-6.7,20.1-11.6,31&#10;&#9;&#9;&#9;&#9;&#9;c-12.5,28.1-25.5,57.2-0.7,87.5C827.7,600.7,810.5,687.9,809.8,691.6z" style="fill: rgb(190, 204, 176);"/>
			</g>
		</g><path class="st18" d="M820.8,673h-30h-93.3c15,228,86.8,274,86.8,274h6.6h30h6.9c0,0,71.8-46,86.8-274H820.8z" style="fill: rgb(219, 198, 195);" transform="matrix(1, 0, 0, 1, -5.684341886080802e-14, 0)"/><g transform="matrix(1, 0, 0, 1, -5.684341886080802e-14, 0)">
			<g>
				<path class="st19" d="M355.3,653.5c-0.3-6.6-4.6-162.1,26.1-219.1c17.3-32.1,18.8-78.7,18.2-103.6c-0.9-35-2.1-67.9-7.1-76.8&#10;&#9;&#9;&#9;&#9;&#9;l2.3-2c11.2,20.1,24.7,128.3-6.3,185.8c-29.8,55.3-22.2,213.8-22.1,215.4L355.3,653.5z" style="fill: rgb(165, 195, 179);"/>
			</g>
			<g>
				<path class="st20" d="M362.4,622.4c0,0,37.1-5,45.1-22.9C415.5,581.6,362.4,622.4,362.4,622.4z" style="fill: rgb(174, 206, 187);"/>
				<path class="st20" d="M360.1,623.2c0,0,37.4,13.7,55.5,0.2C433.6,609.8,360.1,623.2,360.1,623.2z" style="fill: rgb(174, 206, 187);"/>
				<path class="st20" d="M359.6,624.8c0,0,32.4-22.4,30-44.1C387.3,559.1,359.6,624.8,359.6,624.8z" style="fill: rgb(174, 206, 187);"/>
				<g>
					<path class="st20" d="M406.9,339.6c0,0,44.8-19.5,48.3-41.7C458.8,275.7,406.9,339.6,406.9,339.6z" style="fill: rgb(174, 206, 187);"/>
					<path class="st20" d="M404.3,341.3c0,0,52,0.3,69.7-21.1C491.7,298.9,404.3,341.3,404.3,341.3z" style="fill: rgb(174, 206, 187);"/>
					<path class="st20" d="M404.3,343.2c0,0,32.5-36.3,21.7-58.4C415.1,262.6,404.3,343.2,404.3,343.2z" style="fill: rgb(174, 206, 187);"/>
				</g>
				<g>
					<path class="st20" d="M393,411.3c0,0-15.1-44.4-38-50.3C332.1,355,393,411.3,393,411.3z" style="fill: rgb(174, 206, 187);"/>
					<path class="st20" d="M394.4,414c0,0,6.5-48.7-13.8-67.9C360.4,326.8,394.4,414,394.4,414z" style="fill: rgb(174, 206, 187);"/>
					<path class="st20" d="M396.5,414.3c0,0-34.2-34.9-58.8-27.4C313.1,394.4,396.5,414.3,396.5,414.3z" style="fill: rgb(174, 206, 187);"/>
				</g>
				<g>
					<path class="st20" d="M397.2,266.2c0,0-8.1-40.8-32.3-49.2C340.6,208.7,397.2,266.2,397.2,266.2z" style="fill: rgb(174, 206, 187);"/>
					<path class="st20" d="M398.3,268.7c0,0,16.9-41.6-1.9-61.2C377.6,188,398.3,268.7,398.3,268.7z" style="fill: rgb(174, 206, 187);"/>
					<path class="st20" d="M400.5,269.2c0,0-31.1-35.2-60-32C311.6,240.4,400.5,269.2,400.5,269.2z" style="fill: rgb(174, 206, 187);"/>
				</g>
				<path class="st20" d="M374.6,448.4c0,0,48.5,38.3,82.6,26.7C491.3,463.5,374.6,448.4,374.6,448.4z" style="fill: rgb(174, 206, 187);"/>
				<path class="st20" d="M375.2,448.7c0,0,60.7,16.5,87-7.2C488.4,417.7,375.2,448.7,375.2,448.7z" style="fill: rgb(174, 206, 187);"/>
				<path class="st20" d="M380.5,451.2c0,0,42.2-10.1,50-40.2C438.2,380.9,380.5,451.2,380.5,451.2z" style="fill: rgb(174, 206, 187);"/>
				<path class="st20" d="M367.7,541.7c0,0-62.1,11.2-85.9-14.7C257.9,501.2,367.7,541.7,367.7,541.7z" style="fill: rgb(174, 206, 187);"/>
				<path class="st20" d="M367,541.6c0,0-61.5-13.6-72.2-46.3C284,462.5,367,541.6,367,541.6z" style="fill: rgb(174, 206, 187);"/>
				<path class="st20" d="M361,541.4c0,0-31.7-28.2-22.9-58.1C346.9,453.4,361,541.4,361,541.4z" style="fill: rgb(174, 206, 187);"/>
			</g>
		</g><path class="st21" d="M464.6,697.2c-20.1-11-21-29.8-21-29.8c9.6-27.9-10-23.3-10-23.3h-67.4h-7.2h-67.6c0,0-19.6-4.6-10,23.3&#10;&#9;&#9;&#9;c0,0-1,18.9-21,29.9c-20.1,11-32.9,61.8,32.2,226.2c0,0,8.5,21.6,71.5,21.9v0c0,0,0.8,0,1,0c0.2,0,1,0,1,0v0&#10;&#9;&#9;&#9;c63-0.3,66.1-21.9,66.1-21.9C497.1,759,484.7,708.1,464.6,697.2z" style="fill: rgb(214, 185, 165);" transform="matrix(1, 0, 0, 1, -5.684341886080802e-14, 0)"/>
</svg>