<?xml version="1.0" encoding="utf-8"?>
<svg id="master-artboard" viewBox="0 0 700 550" version="1.1" xmlns="http://www.w3.org/2000/svg" x="0px" y="0px" style="enable-background:new 0 0 700 550;" width="700px" height="550px">

<path d="M59.9,176.2c0,0,7.6,9.1,16.7,9.6C76.6,185.8,67.8,177.9,59.9,176.2z M62.4,186.6c6,7.5,16.8,12.1,16.8,12.1&#10;&#9;C73.9,191.3,62.4,186.6,62.4,186.6z M19.5,210.7c0,0,12.3,3.3,19.2-2C38.7,208.6,27.2,205.7,19.5,210.7z M77.8,184.3&#10;&#9;c0,0,5.9-10,6.9-17.9C84.7,166.4,77.7,175.4,77.8,184.3z M76.9,183.4c0,0,2.2-7.7,1.3-14.1C78.3,169.3,75.8,177.5,76.9,183.4z&#10;&#9; M75.6,180.3c0,0,2.4-11.1-1.4-19.2C74.2,161.2,73.1,172.7,75.6,180.3z M67.3,225.6c3.1-7.8,1.1-20,1.1-20&#10;&#9;C65.5,214.2,67.3,225.6,67.3,225.6z M76.4,183.6c0,0-3.9-11.2-12.3-14.9C64.1,168.7,68.1,180.8,76.4,183.6z M38.8,208.1&#10;&#9;c0,0-5.2-6.1-11.1-8.9C27.7,199.2,33.3,205.8,38.8,208.1z M40,207.9c0,0-5.1-10.4-11.2-15.6C28.9,192.2,32.6,203,40,207.9z&#10;&#9; M18.7,198.1c0,0,9,7.3,16.8,9.4C35.5,207.5,27.6,199.3,18.7,198.1z M53.4,214.3c6.2-10.1,2.8-24.1,2.8-24.1&#10;&#9;C52,199.8,53.4,214.3,53.4,214.3z M41.9,208.7c0,0-1.7-11.3-8.2-17.4C33.7,191.3,36.9,202.5,41.9,208.7z M64.4,223&#10;&#9;c-0.6-6.2-5.8-12.9-5.8-12.9C59.6,216.7,64.4,223,64.4,223z M51.3,212.1c-1.2-8.8-9.4-18.7-9.4-18.7&#10;&#9;C43.8,202.8,51.3,212.1,51.3,212.1z M92.3,190.3c0,0-0.7,11.3,5.6,18.5C97.9,208.8,99.8,196.8,92.3,190.3z M60.7,252.5&#10;&#9;c0,0,11.3-1.5,17.5-7.9C78.2,244.6,67,247.6,60.7,252.5z M87.7,260.7c5,66-2.4,109.1-2.4,109.1l4.8,0.6c6.1-66,1.9-114.6-3.2-145.3&#10;&#9;c5.1-11.9,11.4-16,11.4-16c-6.1,3.9-10,10-11.8,13.4c-4.2-24-8.8-36.1-8.8-36.1c4.6,24.1,7.6,46.6,9.4,67c-6.5-12.3-22-36.2-47-44.6&#10;&#9;C42.2,209.5,69.3,219.8,87.7,260.7z M76.7,243.8c0,0-11.3-4-20.8-2.6C56,241.2,68,245.6,76.7,243.8z M40,208.7c0,0,0.1,0,0.1,0&#10;&#9;C40,208.7,40,208.7,40,208.7z M64.1,227.2c0,0-11.2,2.9-17.5,7.9C46.6,235.1,57.9,233.6,64.1,227.2z M27.5,216.3c0,0,9-1.5,12.6-6.6&#10;&#9;C40.1,209.6,31.7,211.1,27.5,216.3z M62.6,226.4c0,0-11.3-4-20.8-2.6C41.9,223.8,53.9,228.2,62.6,226.4z M88.1,170&#10;&#9;c0,0-7.6,8.7-10,16.4C78.1,186.4,86.5,178.7,88.1,170z M115.7,215.9c0,0-10.9-3.9-18.9-3.3C96.8,212.7,107,217.7,115.7,215.9z&#10;&#9; M111.4,195.4c0,0-7,5-9.7,10.3C101.6,205.7,108.1,201,111.4,195.4z M79.5,185.7c8.1-2.3,16.4-11.4,16.4-11.4&#10;&#9;C87.4,177.3,79.5,185.7,79.5,185.7z M99.7,207c0,0,4.8-10.6,4.9-18.6C104.6,188.4,98.7,198.1,99.7,207z M101.7,207&#10;&#9;c0,0,10.8-4.2,16.5-9.9C118.2,197.1,107.2,199.9,101.7,207z M118.7,202c0,0-11.4,2.2-18,6.8C100.7,208.8,112.1,207.9,118.7,202z&#10;&#9; M75.6,241.6c0,0-6.4-4.8-11.9-5C63.7,236.5,69.4,242.4,75.6,241.6z"/>
<g>
	<path d="M369.8,281.6l-5-10.9c-12.7-32.7,0.8-74.8,0.9-75.3l-3.3-0.9c-0.5,1.8-13.7,47.7,1.3,77.4l5.1,11.1c0.5,1,0.9,1.9,1.4,2.9&#10;&#9;&#9;l0.1-3.1C370.3,282.5,370,282.1,369.8,281.6z"/>
	<path d="M363.6,270.9c0,0-2.3-3.4-7.7-7.4c-5.4-4.1-16.1-14.6-18.1-21.2l0.2-0.3c0,0,2.9,7.4,18.6,19.9l5,2.4L363.6,270.9z"/>
	<path d="M358.5,241.8c0,0,1.4-1.7,4.6-3.7c3.2-1.9,9.7-7.1,11.1-10.6l-0.1-0.2c0,0-2,3.9-11.3,9.9l-4,1.4L358.5,241.8z"/>
	<path d="M367,316.4l-4.2,11.5c-5.4,13.6-13.5,29.7-3.9,42.5l-2.2-1.2c-10.8-14.4-0.7-28.3,5.1-42.7l4.2-11.2&#10;&#9;&#9;c10.2-33.5-3.9-75.6-4.1-76l0.8-0.1C363.3,240.8,379.8,285.7,367,316.4z"/>
	<path d="M367.3,315.3c0,0,2.7-4.7,9.5-10.7c6.8-6,20.2-21.1,22.3-30.2l-1.9-1.2c0,0-1.6,11-21.4,29.4l-6.4,3.7L367.3,315.3z"/>
	<path d="M353.2,357c0,0-1.4-3-5.2-6.9c-3.8-3.9-11.1-13.6-11.9-19.2l1.2-0.6c0,0,0.4,6.7,11.5,18.6l3.7,2.5L353.2,357z"/>
	<g>
		<g>
			<path d="M336.4,216.8c-0.5-1.5,0.2-3.2,1.8-3.7c1.5-0.5,3.2,0.2,3.7,1.8c0.5,1.5-0.2,3.2-1.7,3.7&#10;&#9;&#9;&#9;&#9;C338.6,219.1,337,218.3,336.4,216.8z"/>
			<path d="M336.6,221.9c-0.3-0.9,0.1-1.9,1-2.2c0.9-0.3,1.9,0.1,2.2,1c0.3,0.9-0.1,1.9-1,2.2C337.9,223.2,336.9,222.8,336.6,221.9z&#10;&#9;&#9;&#9;&#9;"/>
			<path d="M337.4,226.4c-0.3-0.8,0.1-1.6,0.9-1.9c0.8-0.3,1.6,0.1,1.9,0.9c0.3,0.8-0.1,1.6-0.9,1.9&#10;&#9;&#9;&#9;&#9;C338.5,227.5,337.7,227.1,337.4,226.4z"/>
		</g>
		<g>
			<path d="M313.5,228.1c-1.1-1.1-3-1.1-4.1,0c-1.1,1.1-1.1,3,0,4.1c1.1,1.1,3,1.1,4.1,0C314.7,231,314.7,229.2,313.5,228.1z"/>
			<path d="M318.1,230.3c-0.7-0.7-1.8-0.7-2.4,0c-0.7,0.7-0.7,1.8,0,2.4c0.7,0.7,1.8,0.7,2.4,0C318.7,232.1,318.7,231,318.1,230.3z"/>
			<path d="M321.8,233c-0.6-0.6-1.5-0.6-2.1,0c-0.6,0.6-0.6,1.5,0,2.1c0.6,0.6,1.5,0.6,2.1,0C322.4,234.5,322.3,233.5,321.8,233z"/>
		</g>
		<g>
			<path d="M322.7,217.6l-0.2,1.1c0,0.2-2.4,17.1,15.8,24.3l1.2,0.5l0-1.3c0-0.2-0.1-17-15.7-24.2L322.7,217.6z M339,242.9&#10;&#9;&#9;&#9;&#9;c-5.9-2.7-11.2-7.9-13.1-11.6c-2.2-4.3-2.7-10.7-2.6-12.8c5.3,2.8,9.5,8.4,11.5,12.3C336.8,235,338.8,241,339,242.9z"/>
			<path d="M346.6,221.1l-0.8,0.4c-0.1,0.1-11.4,6.9-6.9,21.3l0.3,0.9l0.8-0.6c0.1-0.1,10.1-8.3,6.8-21.2L346.6,221.1z M339.4,243.3&#10;&#9;&#9;&#9;&#9;c-1.3-4.9-0.7-10.6,0.6-13.5c1.5-3.4,5.1-6.9,6.4-7.8c0.9,4.6-0.4,9.8-1.8,12.9C343,238.1,340.4,242.2,339.4,243.3z"/>
			<path d="M316.9,241.1c10.3,8.4,22,2.8,22.1,2.7l0.9-0.4l-0.7-0.7c-11.2-10.1-22.1-2.8-22.2-2.7l-0.7,0.5L316.9,241.1z&#10;&#9;&#9;&#9;&#9; M329.5,244.4c-3.3,0-8.7-1-12.4-3.8c1.4-0.7,6-2.6,9.8-2.5c3.2,0,8.6,2,12.5,5.2C337.9,243.8,333.1,244.4,329.5,244.4z"/>
		</g>
	</g>
	<g>
		<g>
			<path d="M391.7,220.4c1-0.6,2.3-0.2,2.8,0.7c0.6,1,0.2,2.3-0.7,2.8c-1,0.6-2.3,0.2-2.8-0.7C390.4,222.2,390.7,221,391.7,220.4z"/>
			<path d="M388.2,221.1c0.6-0.3,1.3-0.1,1.7,0.4c0.3,0.6,0.1,1.3-0.4,1.7c-0.6,0.3-1.3,0.1-1.7-0.4&#10;&#9;&#9;&#9;&#9;C387.4,222.2,387.6,221.5,388.2,221.1z"/>
			<path d="M385.1,222.3c0.5-0.3,1.1-0.1,1.4,0.4c0.3,0.5,0.1,1.1-0.4,1.4c-0.5,0.3-1.1,0.1-1.4-0.4&#10;&#9;&#9;&#9;&#9;C384.5,223.2,384.6,222.6,385.1,222.3z"/>
		</g>
		<g>
			<path d="M380.5,208.5c0.6-0.9,0.4-2.2-0.5-2.9c-0.9-0.6-2.2-0.4-2.9,0.5c-0.6,0.9-0.4,2.2,0.5,2.9&#10;&#9;&#9;&#9;&#9;C378.6,209.7,379.9,209.5,380.5,208.5z"/>
			<path d="M379.6,212c0.4-0.6,0.2-1.3-0.3-1.7c-0.6-0.4-1.3-0.2-1.7,0.3c-0.4,0.6-0.2,1.3,0.3,1.7&#10;&#9;&#9;&#9;&#9;C378.4,212.7,379.2,212.5,379.6,212z"/>
			<path d="M378.2,214.9c0.3-0.5,0.2-1.1-0.3-1.4c-0.5-0.3-1.1-0.2-1.4,0.3c-0.3,0.5-0.2,1.1,0.3,1.4&#10;&#9;&#9;&#9;&#9;C377.2,215.5,377.9,215.4,378.2,214.9z"/>
		</g>
		<g>
			<path d="M388.5,211.5l-0.8,0.1c-0.1,0-12.2,1.6-13.8,15.4l-0.1,0.9l0.9-0.2c0.1,0,11.7-3.3,13.7-15.4L388.5,211.5z M374.2,227.5&#10;&#9;&#9;&#9;&#9;c0.7-4.6,3.3-9.2,5.5-11.2c2.5-2.3,6.9-3.9,8.3-4.2c-0.9,4.2-4,8.1-6.3,10.2C379.2,224.5,375.5,227,374.2,227.5z"/>
			<path d="M390.6,228.6l-0.5-0.4c-0.1-0.1-6.9-6.5-16-0.7l-0.6,0.4l0.6,0.4c0.1,0.1,7.6,5.4,15.9,0.7L390.6,228.6z M374,227.8&#10;&#9;&#9;&#9;&#9;c3.1-1.8,7.2-2.5,9.4-2.2c2.6,0.4,5.7,2.2,6.6,2.9c-3,1.5-6.9,1.6-9.2,1.2C378.3,229.4,375,228.4,374,227.8z"/>
			<path d="M371.3,211.9c-3.9,8.7,2.2,15.7,2.3,15.7l0.5,0.5l0.3-0.6c4.9-9.6-2.3-15.7-2.3-15.8l-0.5-0.4L371.3,211.9z M371.4,221.3&#10;&#9;&#9;&#9;&#9;c-0.6-2.3-0.9-6.2,0.3-9.3c0.8,0.8,2.9,3.7,3.6,6.3c0.6,2.2,0.3,6.3-1.2,9.6C373.4,226.9,372,223.7,371.4,221.3z"/>
		</g>
	</g>
	<g>
		<g>
			<path d="M346.5,332c0.4,1.5-0.6,3.1-2.1,3.5c-1.5,0.4-3.1-0.6-3.5-2.1c-0.4-1.5,0.6-3.1,2.1-3.5&#10;&#9;&#9;&#9;&#9;C344.6,329.5,346.2,330.4,346.5,332z"/>
			<path d="M 346.999988 327.399994 A 1.7 1.7 0 0 1 345.299988 329.099994 A 1.7 1.7 0 0 1 343.599988 327.399994 A 1.7 1.7 0 0 1 345.299988 325.699994 A 1.7 1.7 0 0 1 346.999988 327.399994 Z"/>
			<path d="M346.6,322.5c0.2,0.8-0.3,1.5-1.1,1.7c-0.8,0.2-1.5-0.3-1.7-1.1c-0.2-0.8,0.3-1.5,1.1-1.7&#10;&#9;&#9;&#9;&#9;C345.6,321.2,346.4,321.7,346.6,322.5z"/>
		</g>
		<g>
			<path d="M336,347c1.4,0.8,3.1,0.3,3.9-1.1c0.8-1.4,0.3-3.1-1.1-3.9c-1.4-0.8-3.1-0.3-3.9,1.1C334.1,344.5,334.6,346.2,336,347z"/>
			<path d="M331.1,346.1c0.8,0.5,1.9,0.2,2.3-0.7c0.5-0.8,0.2-1.9-0.6-2.3c-0.8-0.5-1.9-0.2-2.3,0.6&#10;&#9;&#9;&#9;&#9;C329.9,344.6,330.2,345.6,331.1,346.1z"/>
			<path d="M326.8,344.5c0.7,0.4,1.6,0.1,2-0.5c0.4-0.7,0.1-1.6-0.5-2c-0.7-0.4-1.6-0.1-2,0.5C325.9,343.3,326.1,344.1,326.8,344.5z&#10;&#9;&#9;&#9;&#9;"/>
		</g>
		<g>
			<path d="M322.1,314.9l0,0.8c0,0.1,0.5,12.4,14.3,15.1l0.9,0.2l-0.2-0.9c0-0.1-2.2-12-14.2-15.1L322.1,314.9z"/>
			<path d="M339.4,314.3l-0.5,0.4c-0.1,0.1-7.2,6.4-2.1,15.9l0.3,0.6l0.5-0.5c0.1-0.1,6.1-7.2,2.1-15.9L339.4,314.3z"/>
			<path d="M321,332.2c8.4,4.6,15.9-0.9,16-0.9l0.6-0.4l-0.6-0.4c-9.2-5.7-16,0.9-16.1,1l-0.4,0.4L321,332.2z"/>
		</g>
	</g>
	<g>
		<path class="st0" d="M361.9,162.4c-10.9,18.3,0.7,35.5,0.8,35.7l0.9,1.3l0.9-1.3c13.5-20-0.7-35.6-0.9-35.8l-1-1L361.9,162.4z" style="fill: rgb(255, 255, 255); stroke: rgb(0, 0, 0);"/>
		<path d="M344.4,184.6c4.1,13.4,17.6,15.2,17.8,15.3l1,0.1l-0.3-1c-3.9-15.4-17.7-15.3-17.9-15.3l-0.9,0L344.4,184.6z"/>
	</g>
	<g>
		<path d="M415.2,259.4l-0.7,0c-0.1,0-11.1,0.3-13.8,12.6l-0.2,0.8l0.8-0.1c0.1,0,10.8-1.9,13.7-12.6L415.2,259.4z"/>
		<path d="M407.8,252.1l-0.5,0.1c-0.1,0-7,2.4-4.6,10.6l0.1,0.5l0.5-0.2c0.1,0,6.3-3.3,4.6-10.6L407.8,252.1z"/>
		<path d="M385.8,253.9c-0.8,7.5,5.8,9.9,5.8,9.9l0.5,0.2l0.1-0.5c1.4-8.5-5.8-10-5.9-10l-0.5-0.1L385.8,253.9z"/>
		<path d="M374.9,271.2c5.3,5.3,11.3,1.8,11.4,1.8l0.4-0.3l-0.4-0.4c-5.7-6.4-11.4-1.8-11.4-1.8l-0.4,0.3L374.9,271.2z"/>
		<path d="M420.1,268.8l-0.4-0.3c-0.1,0-6.1-4.1-11.2,2.8l-0.3,0.4l0.5,0.2c0.1,0,6.4,3,11.2-2.8L420.1,268.8z"/>
		<path d="M413,277.3l-0.4-0.4c-0.1-0.1-5.6-6.5-14.3-2.1l-0.6,0.3l0.5,0.4c0.1,0.1,6.4,5.5,14.2,2.1L413,277.3z"/>
		<path d="M396.5,252.9c-6.7,11.2,0.4,21.7,0.5,21.8l0.5,0.8l0.5-0.8c8.2-12.2-0.4-21.8-0.5-21.9l-0.6-0.6L396.5,252.9z"/>
		<path d="M379.3,260.6c3.2,10.6,13.9,12.1,14.1,12.1l0.8,0.1L394,272c-3-12.2-14-12.1-14.1-12.1l-0.7,0L379.3,260.6z"/>
		<path d="M383,277.9c7.9,3.2,14.1-2.5,14.1-2.5l0.5-0.4l-0.6-0.3c-8.8-4.1-14.1,2.5-14.2,2.6l-0.4,0.4L383,277.9z"/>
	</g>
</g>
<path d="M 623 386.5 L 623.2000122070312 386.29998779296875 L 623.4000244140625 386.29998779296875 L 623.2999877929688 386.1000061035156 L 623.2999877929688 385.8999938964844 L 623.0999755859375 386 L 622.7999877929688 386 L 623 386.20001220703125 Z" class="st1" style="fill: rgb(26, 23, 27);"/>
<path d="M 624.2000122070312 383.5 L 624.2999877929688 383.3999938964844 L 624.5 383.3999938964844 L 624.4000244140625 383.20001220703125 L 624.4000244140625 383.1000061035156 L 624.2999877929688 383.20001220703125 L 624.0999755859375 383.20001220703125 L 624.2000122070312 383.29998779296875 Z" class="st1" style="fill: rgb(26, 23, 27);"/>
<g>
	<path class="st2" d="M530.9,210.3c-1.9,0.7-3.1,4-1.8,6.4c6.1,11.6,22.1-7.6,30.1-7.1c-3.1-5.2-7.4-10.8-16-12.3&#10;&#9;&#9;c-6-1.1-15.5,1.1-15.9,7.4C527.2,207.3,527.6,209.8,530.9,210.3L530.9,210.3z M533.6,209.2c2.3-1,3.5-2.7,7.1-2.9&#10;&#9;&#9;c3.1-0.2,6.3,2.2,8.7,1.7c1-0.2-3.6,0.6-4.9,0.8c-2,0.5-3.7,1.5-6.1,2C537,211,531,210.2,533.6,209.2z" style="fill-rule: evenodd; clip-rule: evenodd; fill: rgb(26, 23, 27);"/>
	<path class="st2" d="M488.6,201.9c2,0,4.3,2.6,3.9,5.4c-1.8,13-23.5,0.5-30.7,3.6c1.2-6,3.2-12.6,10.7-17&#10;&#9;&#9;c5.2-3.1,15.1-4.3,17.5,1.5C491.1,197.7,491.5,200.3,488.6,201.9L488.6,201.9z M485.7,201.8c-2.5-0.2-4.2-1.3-7.7-0.3&#10;&#9;&#9;c-3,0.9-5.2,4.1-7.7,4.5c-0.9,0.2,3.7-0.7,5-0.9c2.1-0.2,4,0.1,6.4-0.3C483.2,204.6,488.5,201.9,485.7,201.8z" style="fill-rule: evenodd; clip-rule: evenodd; fill: rgb(26, 23, 27);"/>
	<path class="st2" d="M530.4,209.2c-9.2,2.4-17.9,4.2-23.8,10.4c6.8-16.4,4.3-13.3,1-30.5c-0.2-0.3-0.6-0.4-0.9-0.3&#10;&#9;&#9;c-0.3,0.2-0.6,1.5-0.4,1.8c4.4,15.6,4.3,15.7-1.5,29.6c1.3-3.6,2.1-8,0-12.5c-2.1-4.5-7.7-6.8-12.2-7.2c-1.5-0.1-2.9,0.4-4.3,0.9&#10;&#9;&#9;c-0.2,0.2-0.3,0.5-0.2,0.8c0.2,0.2,0.5,0.3,0.7,0.1c4.8-1.9,12.2,1.3,14.5,6.2c3.6,8-4.2,18.7-3.9,34.8&#10;&#9;&#9;c-5.4-10.4-13.4-14.3-24.6-15.8c-0.4,0-0.7,0.4-0.7,0.7c0,0.4,0.3,0.7,0.7,0.7c16.1,2.4,21.9,9.4,26.6,23.6&#10;&#9;&#9;c2.3,10,3.9,13.6,6.4,19.8c8.8,22.3,17.1,37.3,15.1,53.4c-2.3,17.7-16.5,30.4-27.2,43.7c-0.2,0.3-0.2,0.7,0,1c0.3,0.3,0.8,0.2,1,0&#10;&#9;&#9;c13.8-16.3,29.9-31.6,27.8-54.8c-0.6-6.7-3.6-15.2-7.4-24.4c-3.1-13.4-2.8-17.2,1.6-23.3c0.1-0.2-0.6-0.7-0.7-0.7&#10;&#9;&#9;c-0.2-0.2-0.5-0.1-0.6,0.1c-3.6,5-4.4,8.6-2.6,18.3c-3.7-9-7.6-18.5-10.3-27.6c0.1-7.2,0.2-15.5,5.1-21.2&#10;&#9;&#9;c4.1-4.8,13.5-4.9,18.3-1.3c0.2,0.3,0.7,0.2,0.9,0c0.3-0.2,0.3-0.7,0-0.8c-5.5-4.2-15.5-4.1-20.2,1.3c-4.2,4.8-5,11.4-5.3,17.7&#10;&#9;&#9;c-4.9-20.3-1.9-38,27.3-42.6c0.4,0,0.7-0.4,0.7-0.7C531.3,209.7,530.8,209.1,530.4,209.2z" style="fill-rule: evenodd; clip-rule: evenodd; fill: rgb(26, 23, 27);"/>
	<path class="st2" d="M507.1,189.3c0.3,2.3-2.2,5.2-5.3,5.3c-14.7,0.4-4.8-26-9.7-33.4c6.8,0.2,14.7,1.3,20.9,8.8&#10;&#9;&#9;c4.3,5.3,8.3,16.9,2.3,20.7C512.9,192.3,509.3,192.2,507.1,189.3L507.1,189.3z M506.6,186c-0.3-2.8,0.7-4.9-1.1-8.7&#10;&#9;&#9;c-1.5-3.1-5.5-4.9-6.5-7.6c-0.4-1.1,1.5,3.8,1.9,5.3c0.7,2.3,0.6,4.4,1.5,7C503,183.7,507,189.2,506.6,186z" style="fill-rule: evenodd; clip-rule: evenodd; fill: rgb(26, 23, 27);"/>
	<path class="st2" d="M528.5,234.9c-1.7-1-5,0.1-6.1,2.7c-5.1,12.1,20,12.3,24.6,18.8c2-5.7,3.6-12.6-0.7-20.2&#10;&#9;&#9;c-2.9-5.3-10.8-11.3-15.9-7.5C528.5,230.1,526.8,232,528.5,234.9L528.5,234.9z M531.1,236.3c2.2,1.2,4.3,1,6.8,3.6&#10;&#9;&#9;c2,2.3,2.4,6.2,4.2,7.8c0.7,0.7-2.7-2.4-3.8-3.2c-1.7-1.3-3.5-2-5.4-3.5C531.8,240,528.6,234.9,531.1,236.3z" style="fill-rule: evenodd; clip-rule: evenodd; fill: rgb(26, 23, 27);"/>
	<path class="st2" d="M517.8,268.3c-1.3,1.6-0.7,5,1.6,6.5c10.9,7.2,15.8-17.3,22.9-20.7c-5.3-3.1-11.7-5.9-19.9-3.1&#10;&#9;&#9;c-5.8,1.9-13.1,8.5-10.4,14.2C513.1,267.5,514.7,269.5,517.8,268.3L517.8,268.3z M519.7,266c1.5-1.9,1.8-4,4.9-6&#10;&#9;&#9;c2.6-1.6,6.5-1.2,8.5-2.7c0.7-0.6-3,2.2-3.9,3.1c-1.6,1.4-2.6,3.1-4.5,4.7C523.5,266,517.9,268.2,519.7,266z" style="fill-rule: evenodd; clip-rule: evenodd; fill: rgb(26, 23, 27);"/>
	<path class="st2" d="M477,228.4c2.1,0.4,3.6,3.5,2.7,6.1c-4.4,12.4-23.1-4.4-30.8-2.7c2.4-5.6,5.8-11.8,14-14.5&#10;&#9;&#9;c5.7-1.9,15.6-1.2,16.9,5.1C480.2,224.9,480.1,227.5,477,228.4L477,228.4z M474.1,227.7c-2.4-0.6-3.9-2.1-7.5-1.9&#10;&#9;&#9;c-3,0.2-5.9,3-8.4,3c-1,0,3.7,0,5,0.1c2.1,0.1,3.9,0.9,6.3,1C471.1,230,476.9,228.5,474.1,227.7z" style="fill-rule: evenodd; clip-rule: evenodd; fill: rgb(26, 23, 27);"/>
</g>
<g>
	<g>
		<g>
			<path class="st1" d="M647.3,265.8c12.7-29.1,18.7-60.2,7.6-79.1c-10.8-18.5-25.9-21.4-25-22.1c-0.7,0.3,14.7,2.6,26.2,21.4&#10;&#9;&#9;&#9;&#9;c11.8,19.3,5.7,51.2-7.1,80.4c-6.2,14.9-13.1,28.8-17.6,41.9c-3.9,13.3-4,26.2-2,36.4c3.8,21.4,17.3,28.6,16.7,28.7&#10;&#9;&#9;&#9;&#9;c0.5,0.4-13.7-6.6-17.9-28.4c-2.2-10.4-2.3-23.5,1.6-37.2C634.2,294.4,641.1,280.7,647.3,265.8z" style="fill: rgb(26, 23, 27);"/>
			<path class="st1" d="M658.2,244.9c-1.1,0.9-2.1,0.8-3.1-0.1c-4.1-3.8,2.3-23.1,2.4-32c0.7-7.6,0.2-15.3-2.1-22.6&#10;&#9;&#9;&#9;&#9;c-1-3.1-2.3-6.1-4-9c-1-1.7-2.6-4.5-4.3-5.8c9.5,8.1,15.9,19.8,17.6,32.6c1,7,0.9,14.2-0.2,21.2c-0.6,4.1-2,8.5-3.7,11.9&#10;&#9;&#9;&#9;&#9;C660,243,659.1,244.2,658.2,244.9z" style="fill: rgb(26, 23, 27);"/>
		</g>
	</g>
	<g>
		<g>
			<path class="st1" d="M639.6,324.2c10.9-25.7,26.7-42.2,26.6-42.1c0.5,0.3-14.8,17.1-25.6,42.5c-4.9,12.8-5.4,25.7-3.1,34.3&#10;&#9;&#9;&#9;&#9;c2.2,8.8,6.6,12.8,6.3,12.9c0.1,0.1-4.6-3.8-7.1-12.7C634.3,350.3,634.6,337.2,639.6,324.2z" style="fill: rgb(26, 23, 27);"/>
			<path class="st1" d="M645.4,315.9c-0.6,0.2-1.2,0.1-1.7-0.5c-2.5-2.4,2.6-10.1,5.2-13.3c2-2.9,4.4-5.4,6.7-7.9l3-3.2&#10;&#9;&#9;&#9;&#9;c0.6-0.6,1.7-1.5,2.2-2.2c-3,4.4-5,9.2-7.3,13.8c-1.1,2.6-2.3,5.2-3.6,7.7c-0.9,1.4-1.8,3-2.8,4.2&#10;&#9;&#9;&#9;&#9;C646.4,315.4,645.9,315.8,645.4,315.9z" style="fill: rgb(26, 23, 27);"/>
		</g>
	</g>
	<g>
		<g>
			<path class="st1" d="M630,277.5c4.4-13.9,9.3-27.1,10.3-39.6c0.3-6.1,0.1-12.9-4.7-16c-4.3-3.1-10.9-3.2-13.7,0.5&#10;&#9;&#9;&#9;&#9;c-2.9,3.5-2.8,9,0.1,11.1c3.2,2.1,6.8,0.5,8.2-1.7c3.3-5-1.2-7.4-0.8-7.1c-0.4-0.5,4.5,2,1.2,7.3c-1.3,2.4-5.3,4.3-8.9,2&#10;&#9;&#9;&#9;&#9;c-3.4-2.5-3.4-8.3-0.4-12.1c3.2-4.2,10.1-4,14.8-0.8c5.2,3.5,5.5,10.7,5.2,16.8c-0.9,12.8-5.8,26-10.2,39.9&#10;&#9;&#9;&#9;&#9;c-4.6,13.8-8.3,27.4-8.4,40c-0.2,12.6,2.5,23.9,6.4,32.5c7.9,17.7,19.9,23.2,19.4,23.4c0.4,0.1-11.9-5.2-20.1-23.1&#10;&#9;&#9;&#9;&#9;c-4-8.7-6.9-20.1-6.7-32.9C621.7,305,625.4,291.4,630,277.5z" style="fill: rgb(26, 23, 27);"/>
			<path class="st1" d="M638.1,258c-0.8,0.9-1.3,0.9-1.9,0.3c-2.2-2.9,3.6-20.9,1.9-28.7c0-6.3-7.5-10.8-13.6-8.5&#10;&#9;&#9;&#9;&#9;c-2.5,0.9-4.2,3.6-4.7,6.5c-0.4,1.6-0.1,4.8,1.6,6c-4.1-4.1-2.4-12.1,3.2-14.7c5.5-2.1,12.8-0.4,16.2,5.4&#10;&#9;&#9;&#9;&#9;c3.1,6.3,2.8,12.9,2.1,19.3c-0.5,3.8-1.7,7.7-2.9,10.8C639.3,256.2,638.7,257.3,638.1,258z" style="fill: rgb(26, 23, 27);"/>
		</g>
	</g>
</g>
<g>
	<g>
		<g>
			<path class="st1" d="M225.4,364.1c-2.3-25.1-5.8-50.2-11.4-74.8c-9.2-40-25.4-79.4-52.9-108.5l-1.7,1.9&#10;&#9;&#9;&#9;&#9;c27.1,28.6,43.2,67.6,52.3,107.3c5.6,24.3,9,49.1,11.4,74.1H225.4z" style="fill: rgb(26, 23, 27);"/>
			<path class="st1" d="M160.9,174.2c2.3,2.2,2.2,6,0.1,8.4c-2.2,2.4-5.4,2.5-7.5,0.5c-2.1-2-2.1-5.7-0.2-8.3&#10;&#9;&#9;&#9;&#9;C155.3,172.3,158.6,172,160.9,174.2z" style="fill: rgb(26, 23, 27);"/>
		</g>
	</g>
	<g>
		<g>
			<path class="st1" d="M228.3,364.2c10.8-24.6,20.6-49.7,27.9-75.9c11-39.4,15.8-82.3,6-122.9l-2.3,0.7c9.7,39.9,5,82.3-6,121.5&#10;&#9;&#9;&#9;&#9;c-7.2,25.9-16.9,50.8-27.7,75.3L228.3,364.2z" style="fill: rgb(26, 23, 27);"/>
			<path class="st1" d="M265.2,159.7c0.9,3.1-1,6.4-3.9,7.2c-3,0.8-5.8-1-6.6-3.9c-0.8-2.9,0.9-6.1,3.8-7.2&#10;&#9;&#9;&#9;&#9;C261.3,154.8,264.3,156.6,265.2,159.7z" style="fill: rgb(26, 23, 27);"/>
		</g>
	</g>
	<g>
		<g>
			<path class="st1" d="M226.7,364.1c0.5-7.5,1-15.1,1.6-22.6c3.2-26.9,1.4-54.2,1.4-81.1c0.1-26.7,0.6-54.5,10.9-78.7l-2.7-1.5&#10;&#9;&#9;&#9;&#9;c-10.8,25.2-11,53.3-11.2,80.1c0,27.1,1.8,54-1.4,80.8c-0.6,7-1.1,14-1.5,21L226.7,364.1z" style="fill: rgb(26, 23, 27);"/>
			<path class="st1" d="M247.8,179.7c-1.7,3.1-5.6,4.4-9.1,2.7c-3.5-1.7-4.8-6.5-2.6-10.5c2.2-4.1,6.9-4.9,9.7-2.3&#10;&#9;&#9;&#9;&#9;C248.8,172.4,249.4,176.6,247.8,179.7z" style="fill: rgb(26, 23, 27);"/>
		</g>
	</g>
	<g>
		<g>
			<path class="st1" d="M223.4,363.6c-8.3-51.3-13.1-103.2-12.5-155.4l-3,0c-0.6,52.7,4.3,105,12.7,156.7L223.4,363.6z" style="fill: rgb(26, 23, 27);"/>
			<path class="st1" d="M216.2,202.5c0,3.9-3.1,7.1-6.9,7.1c-3.8,0-6.8-3.2-6.8-7.2c0-4,3.1-7.1,6.9-7.1&#10;&#9;&#9;&#9;&#9;C213.2,195.4,216.2,198.6,216.2,202.5z" style="fill: rgb(26, 23, 27);"/>
		</g>
	</g>
	<g>
		<g>
			<path class="st1" d="M228,363.7c13.4-49.2,18.1-101.3,12.8-152.4l-2.1,0.3c5.3,50.9,0.5,103-12.9,152.1L228,363.7z" style="fill: rgb(26, 23, 27);"/>
			<path class="st1" d="M244,206.3c0.4,3.1-1.5,6-4.1,6.3c-2.6,0.3-5.1-1.8-5.4-4.9c-0.4-3,1.5-5.8,4.1-6.3&#10;&#9;&#9;&#9;&#9;C241.2,201,243.7,203.2,244,206.3z" style="fill: rgb(26, 23, 27);"/>
		</g>
	</g>
	<g>
		<g>
			<path class="st1" d="M221.2,363.1c-14.9-34.7-25.3-71.8-30-109.8l2.1-0.3c4.8,37.9,15.1,74.9,30,109.6L221.2,363.1z" style="fill: rgb(26, 23, 27);"/>
			<path class="st1" d="M186.9,249.3c0.4,3.1,2.8,5.4,5.4,5c2.6-0.4,4.5-3.2,4.1-6.2c-0.3-3-2.7-5.3-5.4-5&#10;&#9;&#9;&#9;&#9;C188.4,243.4,186.6,246.1,186.9,249.3z" style="fill: rgb(26, 23, 27);"/>
		</g>
	</g>
	<g>
		<g>
			<path class="st1" d="M219.1,364.6c-28.6-55.3-45.3-118.2-46.6-181.8l2.1,0c1.3,63.5,18,126.4,46.7,181.6L219.1,364.6z" style="fill: rgb(26, 23, 27);"/>
			<path class="st1" d="M168.7,178.2c0,3.2,2.2,5.7,4.8,5.6c2.6-0.1,4.8-2.6,4.8-5.6c0-3-2.2-5.6-4.8-5.6&#10;&#9;&#9;&#9;&#9;C170.9,172.5,168.7,175,168.7,178.2z" style="fill: rgb(26, 23, 27);"/>
		</g>
	</g>
</g>
</svg>